{"title":"Bron/Broen S04 E06 - 720p x265 HEVC - (ENG SUBS) [BRSHNKV]","magnet":"magnet:?xt=urn:btih:bbea78eaaf3f412ae9d40faed45ec0329c3634ed&dn=Bron%2FBroen+S04+E06+-+720p+x265+HEVC+-+%28ENG+SUBS%29+%5BBRSHNKV%5D&tr=udp%3A%2F%2Ftracker.leechers-paradise.org%3A6969&tr=udp%3A%2F%2Fzer0day.ch%3A1337&tr=udp%3A%2F%2Fopen.demonii.com%3A1337&tr=udp%3A%2F%2Ftracker.coppersurfer.tk%3A6969&tr=udp%3A%2F%2Fexodus.desync.com%3A6969","uploader":"BRSHNKV","categoryP":"video","categoryS":"hd___tv_shows","size":"469828884","seeders":"3","leechers":"0","description":"Tech: \r\n\r\nFormat : MPEG-4 \r\nFormat profile : Base Media / Version 2 \r\nCodec ID : mp42 \r\nFile size : 448 MiB \r\nDuration : 58mn 27s \r\nOverall bit rate mode : Variable \r\nOverall bit rate : 1 071 Kbps \r\nMovie name : Bron/Broen S04 E06 - 720p x265 HEVC [BRSHNKV] \r\nEncoded date : UTC 2018-02-04 19:08:40 \r\nTagged date : UTC 2018-02-04 19:08:40 \r\nWriting application : HandBrake 20160211184813-ffd8cb1-master 2016021301 \r\n\r\nVideo \r\nID : 1 \r\nFormat : HEVC \r\nFormat/Info : High Efficiency Video Coding \r\nFormat profile : Main <a href=\"/cdn-cgi/l/email-protection\" class=\"__cf_email__\" data-cfemail=\"c9f8f98985fae7f8\">[email&#xA0;protected]</a>@Main \r\nCodec ID : hev1 \r\nCodec ID/Info : High Efficiency Video Coding \r\nDuration : 58mn 27s \r\nBit rate : 901 Kbps \r\nWidth : 1 280 pixels \r\nHeight : 720 pixels \r\nDisplay aspect ratio : 16:9 \r\nFrame rate mode : Constant \r\nFrame rate : 25.000 fps \r\nColor space : YUV \r\nChroma subsampling : 4:2:0 \r\nBit depth : 10 bits \r\nBits/(Pixel*Frame) : 0.039 \r\nStream size : 377 MiB (84%) \r\nWriting library : x265 1.9:[Mac OS X][clang 7.0.2][64 bit] 10bit \r\nEncoded date : UTC 2018-02-04 19:08:40 \r\nTagged date : UTC 2018-02-04 19:08:40 \r\nColor range : Limited \r\nColor primaries : BT.709 \r\nTransfer characteristics : BT.709 \r\nMatrix coefficients : BT.709 \r\n\r\nAudio \r\nID : 2 \r\nFormat : AAC \r\nFormat/Info : Advanced Audio Codec \r\nFormat profile : LC \r\nCodec ID : 40 \r\nDuration : 58mn 27s \r\nBit rate mode : Variable \r\nBit rate : 164 Kbps \r\nChannel(s) : 2 channels \r\nChannel positions : Front: L R \r\nSampling rate : 48.0 KHz \r\nCompression mode : Lossy \r\nStream size : 68.8 MiB (15%) \r\nTitle : Stereo / Stereo \r\nLanguage : Swedish \r\nEncoded date : UTC 2018-02-04 19:08:40 \r\nTagged date : UTC 2018-02-04 19:08:40","last_updated":"2018-02-05T12:01:19.775Z","parsed":{"xt":"urn:btih:bbea78eaaf3f412ae9d40faed45ec0329c3634ed","dn":"Bron/Broen S04 E06 - 720p x265 HEVC - (ENG SUBS) [BRSHNKV]","tr":["udp://exodus.desync.com:6969","udp://open.demonii.com:1337","udp://tracker.coppersurfer.tk:6969","udp://tracker.leechers-paradise.org:6969","udp://zer0day.ch:1337"],"infoHash":"bbea78eaaf3f412ae9d40faed45ec0329c3634ed","infoHashBuffer":{"type":"Buffer","data":[187,234,120,234,175,63,65,42,233,212,15,174,212,94,192,50,156,54,52,237]},"name":"Bron/Broen S04 E06 - 720p x265 HEVC - (ENG SUBS) [BRSHNKV]","announce":["udp://exodus.desync.com:6969","udp://open.demonii.com:1337","udp://tracker.coppersurfer.tk:6969","udp://tracker.leechers-paradise.org:6969","udp://zer0day.ch:1337"],"urlList":[]}}